<?xml version="1.0" encoding="utf-8"?>
<!-- Generator: Adobe Illustrator 19.0.0, SVG Export Plug-In . SVG Version: 6.00 Build 0)  -->
<svg version="1.1" id="Layer_1" xmlns="http://www.w3.org/2000/svg" xmlns:xlink="http://www.w3.org/1999/xlink" x="0px" y="0px"
	 viewBox="0 0 335.8 470.2" style="enable-background:new 0 0 335.8 470.2;" xml:space="preserve">
<style type="text/css">
	.Arched_x0020_Green{fill:url(#SVGID_1_);stroke:#FFFFFF;stroke-width:0.25;stroke-miterlimit:1;}
	.st0{fill:#FFFFFF;}
	.st1{display:none;fill:#0D1B0F;}
	.st2{fill:#3C9CD7;}
	.st3{fill:#2062AF;}
</style>
<linearGradient id="SVGID_1_" gradientUnits="userSpaceOnUse" x1="-253.05" y1="532.7313" x2="-252.3429" y2="532.0242">
	<stop  offset="0" style="stop-color:#20AC4B"/>
	<stop  offset="0.9831" style="stop-color:#19361A"/>
</linearGradient>
<rect x="-98.1" y="-34.2" class="st0" width="538.6" height="538.6"/>
<rect x="-101.4" y="-34.2" class="st1" width="575.3" height="538.6"/>
<g>
	<g>
		<g id="XMLID_1_">
			<g>
				<path class="st0" d="M335.5,92.7l-31.4,340.5l-136.2,36.7L31.7,433.3L0.3,92.7H335.5z M278.4,411.1l25.4-290.8h-136V162h-0.1
					H61.5l5.1,41.1h101.2h0.1v2.3l-0.1,0.1l-97.5,40.6l3.2,40.2h0.2l94.1,0.3h0.1v67l-0.1,0v0l-0.4,0.1l-45.7-11.5l-2.8-33.3h-0.2
					H76.4h-0.2l5.5,64.2l85.9,25.4v0l0.1,0v42.2l0.3,0.1L278.4,411.1z"/>
				<polygon class="st0" points="303.9,120.3 278.4,411.1 168.2,440.8 167.9,440.7 167.9,398.5 167.9,398.5 253.4,373.6 
					264.5,246.1 167.9,246.1 167.9,245.9 268,203.1 272.2,162 167.9,162 167.9,120.3 				"/>
				<path class="st0" d="M267.4,42.7v20.2h-51.8V42.7c0,0,14.7,0,20.6,0c-10-10-13.6-13.3-20.6-20.3c0-11.1,0-22.2,0-22.2h51.8v22.2
					h-20.7L267.4,42.7z"/>
				<polygon class="st0" points="218.3,286.7 215.1,340.3 167.9,353.6 167.9,286.6 				"/>
				<path class="st0" d="M194,42.7v20.2h-51.8V42.7c0,0,14.7,0,20.6,0c-10-10-13.6-13.3-20.6-20.3c0-11.1,0-22.2,0-22.2H194v22.2
					h-20.7L194,42.7z"/>
				<polygon class="st2" points="173.5,203.1 167.9,205.4 167.9,203.1 				"/>
				<polygon class="st3" points="167.9,245.9 167.9,246.1 167.8,246.1 167.5,246.1 167.8,246 				"/>
				<polygon points="167.8,398.5 167.8,398.5 81.8,373.1 76.3,308.9 76.4,308.9 82,373.1 				"/>
				<polygon points="167.8,353.6 167.8,353.6 167.5,353.7 167.4,353.7 				"/>
				<polygon class="st0" points="120.2,42.7 120.2,62.9 68.4,62.9 68.4,0.3 120.2,0.3 120.2,22.4 90.6,22.4 90.6,42.7 				"/>
			</g>
			<g>
			</g>
		</g>
	</g>
</g>
</svg>
