<?xml version="1.0" encoding="utf-8"?>
<!-- Generator: Adobe Illustrator 19.0.0, SVG Export Plug-In . SVG Version: 6.00 Build 0)  -->
<svg version="1.1" id="Layer_1" xmlns="http://www.w3.org/2000/svg" xmlns:xlink="http://www.w3.org/1999/xlink" x="0px" y="0px"
	 viewBox="130.4 -56.3 363.2 512.5" style="enable-background:new 130.4 -56.3 363.2 512.5;" xml:space="preserve">
<style type="text/css">
	.st0{fill:#FFFFFF;}
</style>
<title>HTML5 Logo</title>
<g id="XMLID_1_">
	<g>
		<path class="st0" d="M493.4,44.6l-33,370.2L311.8,456l-148.1-41.1l-33-370.3H493.4z M432,391.3l28.2-316.4H312v45.4h-0.2H198.1
			l1.1,12.2l11.2,125.1h101.5h0.2v72.5l-0.2,0v0l0,0l-50.6-13.7l-3.2-36.2h-24.6h-21l6.4,71.3l93,25.8l0.2-0.1v47.1L432,391.3z"/>
		<polygon class="st0" points="460.3,74.9 432,391.3 312,424.5 312,377.4 312,377.4 404.9,351.6 405.6,344 416.3,224.4 417.4,212.2 
			405.2,212.2 312,212.2 312,165.7 421.4,165.7 421.5,165.7 422.4,155.5 424.5,132.5 425.6,120.3 312,120.3 312,74.9 		"/>
		<polygon class="st0" points="460.3,-9.8 460.3,13 404.7,13 404.7,-56 427.8,-56 427.8,-9.8 		"/>
		<polygon class="st0" points="393.2,-56 393.2,13 370.3,13 370.3,-21.2 354.4,3.4 354,3.4 338.1,-21.2 338.1,13 315.5,13 
			315.5,-56 339.6,-56 354.4,-31.7 369.2,-56 		"/>
		<polygon class="st0" points="367.8,257.6 362.5,316.5 312,330.1 312,257.6 		"/>
		<polygon class="st0" points="312,165.7 312,212.2 311.8,212.2 251.9,212.2 247.8,165.7 311.8,165.7 		"/>
		<polygon class="st0" points="305.4,-56 305.4,-33.1 285.1,-33.1 285.1,13 262,13 262,-33.1 262,-33.1 241.7,-33.1 241.7,-56 		"/>
		<polygon class="st0" points="231.7,-56 231.7,13 208.6,13 208.6,-10.1 187.5,-10.1 187.5,13 164.4,13 164.4,-56 187.5,-56 
			187.5,-33.2 208.6,-33.2 208.6,-56 		"/>
	</g>
	<g>
	</g>
</g>
</svg>
