<?xml version="1.0" encoding="utf-8"?>
<!-- Generator: Adobe Illustrator 19.0.0, SVG Export Plug-In . SVG Version: 6.00 Build 0)  -->
<svg version="1.1" id="Layer_2" xmlns="http://www.w3.org/2000/svg" xmlns:xlink="http://www.w3.org/1999/xlink" x="0px" y="0px"
	 viewBox="0 0 81.1 113.9" style="enable-background:new 0 0 81.1 113.9;" xml:space="preserve">
<style type="text/css">
	.st0{display:none;fill:#2E3192;}
	.st1{fill:#FFFFFF;}
</style>
<rect x="-25.3" y="-11.7" class="st0" width="127.8" height="135.7"/>
<g id="Layer_1">
	<g id="code_x5F_html5">
	</g>
	<g>
		<g>
			<g id="XMLID_1_">
				<g>
					<path class="st1" d="M80.8,22.5l-7.6,81.9l-32.7,9.3l-32.7-9.3L0.3,22.5h40.3H80.8z M67,99.2l6.5-70.1h-33v10H20.9L18,69.8
						l0.1-0.2h22.5v16.1l-11.2-3.2l-0.7-7.8H18.5l1.5,15.7l20.6,5.8v10.4L67,99.2z"/>
					<polygon class="st1" points="73.5,29.1 67,99.2 40.5,106.7 40.5,96.3 61.1,90.4 64,59.6 40.5,59.6 40.5,49.4 53.2,49.4 
						53.6,55.3 63.8,55.3 61.6,39.2 40.5,39.2 40.5,29.1 					"/>
					<path class="st1" d="M55.5,10.6v4.9H43v-4.9c0,0,3.6,0,5,0c-2.4-2.4-3.3-3.2-5-4.9c0-2.7,0-5.3,0-5.3h12.5v5.3h-5L55.5,10.6z"
						/>
					<polygon class="st1" points="52.7,69.7 51.6,82.6 40.5,85.8 40.5,69.7 					"/>
					<polygon class="st1" points="40.5,49.4 40.5,59.6 28.6,59.6 29.1,49.4 					"/>
					<polygon class="st1" points="37.8,0.3 37.8,15.5 36.5,15.5 32.7,15.5 25.5,15.5 25.5,10.4 32.7,10.4 32.7,0.3 					"/>
				</g>
				<g>
				</g>
			</g>
		</g>
	</g>
</g>
</svg>
