<?xml version="1.0" encoding="utf-8"?>
<!-- Generator: Adobe Illustrator 19.0.0, SVG Export Plug-In . SVG Version: 6.00 Build 0)  -->
<svg version="1.1" xmlns="http://www.w3.org/2000/svg" xmlns:xlink="http://www.w3.org/1999/xlink" x="0px" y="0px"
	 viewBox="0 0 960 560" style="enable-background:new 0 0 960 560;" xml:space="preserve">
<style type="text/css">
	.st0{display:none;}
	.st1{display:inline;}
	.st2{fill:#754C24;}
	.st3{fill:none;stroke:#000000;stroke-width:2;stroke-miterlimit:10;}
	.st4{fill:#FFFFFF;}
	.st5{fill:#999999;}
	.st6{display:inline;fill:#FFFFFF;}
</style>
<g id="Layer_1" class="st0">
	<g id="XMLID_37_" class="st1">
		<g id="XMLID_36_">
			<g id="XMLID_81_">
				<circle id="XMLID_1_" class="st2" cx="49.3" cy="57.8" r="1"/>
				<path id="XMLID_7_" class="st2" d="M49.3,59.1c-0.8,0-1.4-0.6-1.4-1.4c0-0.8,0.6-1.4,1.4-1.4c0.8,0,1.4,0.6,1.4,1.4
					C50.7,58.5,50.1,59.1,49.3,59.1z M49.3,57.1c-0.3,0-0.6,0.3-0.6,0.6c0,0.3,0.3,0.6,0.6,0.6c0.3,0,0.6-0.3,0.6-0.6
					C50,57.4,49.7,57.1,49.3,57.1z"/>
			</g>
		</g>
		<g id="XMLID_35_">
			<path id="XMLID_19_" d="M114,66H17V13h97V66z M18,65h95V14H18V65z"/>
		</g>
		<path id="XMLID_4_" class="st3" d="M17.3,62.5"/>
		<rect id="XMLID_20_" x="17" y="58" width="97" height="1"/>
		<g id="XMLID_34_">
			<g id="XMLID_9_">
				<path id="XMLID_10_" d="M27.7,61.7v1.2h0.8l1,1v-3.1l-1,1H27.7z M30.3,62.2c0-0.3-0.2-0.6-0.5-0.8V63
					C30.1,62.9,30.3,62.6,30.3,62.2z M29.8,60.5v0.4c0.6,0.2,1,0.7,1,1.3c0,0.6-0.4,1.1-1,1.3v0.4c0.8-0.2,1.4-0.9,1.4-1.7
					C31.1,61.4,30.6,60.7,29.8,60.5z"/>
				<path id="XMLID_3_" d="M20.9,60.6v3.2l2.5-1.6L20.9,60.6z"/>
			</g>
			<g id="XMLID_2_">
				<path id="XMLID_5_" d="M95,62.4c0-0.1,0-0.1,0-0.2c0-0.1,0-0.1,0-0.2l0.4-0.3c0,0,0-0.1,0-0.1L95,61.1c0,0-0.1,0-0.1,0l-0.4,0.2
					c-0.1-0.1-0.2-0.1-0.3-0.2l-0.1-0.4c0,0,0-0.1-0.1-0.1h-0.7c0,0-0.1,0-0.1,0.1l-0.1,0.4c-0.1,0-0.2,0.1-0.3,0.2l-0.4-0.2
					c0,0-0.1,0-0.1,0l-0.3,0.6c0,0,0,0.1,0,0.1l0.4,0.3c0,0.1,0,0.1,0,0.2c0,0.1,0,0.1,0,0.2l-0.4,0.3c0,0,0,0.1,0,0.1l0.3,0.6
					c0,0,0.1,0,0.1,0l0.4-0.2c0.1,0.1,0.2,0.1,0.3,0.2l0.1,0.4c0,0,0,0.1,0.1,0.1h0.7c0,0,0.1,0,0.1-0.1l0.1-0.4
					c0.1,0,0.2-0.1,0.3-0.2l0.4,0.2c0,0,0.1,0,0.1,0l0.3-0.6c0,0,0-0.1,0-0.1L95,62.4z M93.7,62.8c-0.3,0-0.6-0.3-0.6-0.6
					c0-0.3,0.3-0.6,0.6-0.6s0.6,0.3,0.6,0.6C94.3,62.6,94.1,62.8,93.7,62.8z"/>
				<path id="XMLID_14_" d="M106.5,62.6H106v1.1h1.1v-0.4h-0.7V62.6z M106,61.7h0.4V61h0.7v-0.4H106V61.7z M108.7,63.2H108v0.4h1.1
					v-1.1h-0.4V63.2z M108,60.5V61h0.7v0.7h0.4v-1.1H108z"/>
			</g>
			<path id="XMLID_38_" d="M103.6,63.8h-5.7v-3.2h5.7V63.8z M98.4,63.3h4.7v-2.2h-4.7V63.3z"/>
		</g>
		<rect id="XMLID_74_" x="18" y="57" class="st2" width="31" height="1"/>
		<g id="XMLID_33_">
			<g id="XMLID_96_">
				<path id="XMLID_97_" d="M28.1,26.8l2-6.5h2.6l2,6.5l2.2-6.5h2.7l-3.9,11.3h-1.9l-2.5-7.8L29,31.6h-1.9l-3.9-11.3h2.7L28.1,26.8z
					"/>
				<path id="XMLID_99_" d="M48.5,31.6l-1-2.4h-4.7l-1,2.4H39l4.9-11.3h2.4l4.9,11.3H48.5z M45.1,23.7L43.7,27h2.8L45.1,23.7z"/>
				<path id="XMLID_102_" d="M56.4,22.5v9.1h-2.5v-9.1h-3.2v-2.2h8.9v2.2H56.4z"/>
				<path id="XMLID_104_" d="M66.6,29.4c1.2,0,2.2-0.5,3-1.5l1.6,1.7c-1.3,1.4-2.8,2.2-4.5,2.2c-1.7,0-3.2-0.5-4.3-1.6
					c-1.1-1.1-1.7-2.5-1.7-4.2c0-1.7,0.6-3.1,1.7-4.2c1.1-1.1,2.5-1.7,4.2-1.7c1.8,0,3.4,0.7,4.6,2.1L69.8,24c-0.8-1-1.8-1.5-3-1.5
					c-0.9,0-1.8,0.3-2.4,0.9s-1,1.5-1,2.5s0.3,1.9,1,2.5S65.7,29.4,66.6,29.4z"/>
				<path id="XMLID_106_" d="M80.2,20.3h2.5v11.3h-2.5v-4.4h-4.5v4.4h-2.5V20.3h2.5V25h4.5V20.3z"/>
			</g>
			<g id="XMLID_32_">
				<g id="XMLID_91_">
					<path id="XMLID_92_" d="M34.7,41.9l-3,6.2h-1.5l-3-6.2V49h-2.5V37.7H28l2.9,6.2l2.9-6.2h3.4V49h-2.5V41.9z"/>
					<path id="XMLID_94_" d="M48.1,37.7V40h-5.6v2.3h5v2.1h-5v2.3h5.8V49H40V37.7H48.1z"/>
				</g>
				<g id="XMLID_31_">
					<rect id="XMLID_24_" x="53.3" y="36.2" width="51.1" height="14"/>
					<g id="XMLID_21_">
						<path id="XMLID_82_" class="st4" d="M62.6,37.7h2.5V49h-2.5v-4.4h-4.5V49h-2.5V37.7h2.5v4.7h4.5V37.7z"/>
						<path id="XMLID_84_" class="st4" d="M75.9,49l-1-2.4h-4.7l-1,2.4h-2.7l4.9-11.3h2.4L78.6,49H75.9z M72.5,41.1l-1.4,3.3h2.8
							L72.5,41.1z"/>
						<path id="XMLID_87_" class="st4" d="M85.1,46.8c1.2,0,2.2-0.5,3-1.5l1.6,1.7c-1.3,1.4-2.8,2.2-4.5,2.2c-1.7,0-3.2-0.5-4.3-1.6
							c-1.1-1.1-1.7-2.5-1.7-4.2c0-1.7,0.6-3.1,1.7-4.2c1.1-1.1,2.5-1.7,4.2-1.7c1.8,0,3.4,0.7,4.6,2.1l-1.6,1.8
							c-0.8-1-1.8-1.5-3-1.5c-0.9,0-1.8,0.3-2.4,0.9s-1,1.5-1,2.5s0.3,1.9,1,2.5S84.2,46.8,85.1,46.8z"/>
						<path id="XMLID_89_" class="st4" d="M91.7,37.7h2.5v4.6l4.3-4.6h3.1l-4.5,5c0.4,0.5,1.1,1.5,2.1,3c1,1.5,1.8,2.6,2.3,3.3h-2.9
							l-3.3-4.4l-1.1,1.3V49h-2.5V37.7z"/>
					</g>
				</g>
			</g>
		</g>
	</g>
	<g id="XMLID_161_" class="st1">
		<g id="XMLID_162_">
			<circle id="XMLID_166_" class="st5" cx="36.3" cy="203.8" r="1"/>
			<path id="XMLID_163_" class="st5" d="M36.3,205.1c-0.8,0-1.4-0.6-1.4-1.4c0-0.8,0.6-1.4,1.4-1.4c0.8,0,1.4,0.6,1.4,1.4
				C37.7,204.5,37.1,205.1,36.3,205.1z M36.3,203.1c-0.3,0-0.6,0.3-0.6,0.6c0,0.3,0.3,0.6,0.6,0.6c0.3,0,0.6-0.3,0.6-0.6
				C37,203.4,36.7,203.1,36.3,203.1z"/>
		</g>
	</g>
	<path id="XMLID_156_" class="st6" d="M4.3,208.5"/>
	<g id="XMLID_118_" class="st1">
		<path id="XMLID_121_" class="st4" d="M21.7,187.9l-3,6.2h-1.5l-3-6.2v7.1h-2.5v-11.3H15l2.9,6.2l2.9-6.2h3.4V195h-2.5V187.9z"/>
		<path id="XMLID_119_" class="st4" d="M35.1,183.7v2.2h-5.6v2.3h5v2.1h-5v2.3h5.8v2.2H27v-11.3H35.1z"/>
	</g>
</g>
<g id="Layer_2">
	<g id="XMLID_22_">
		<path id="XMLID_136_" d="M873,498H134V94h739V498z M141,490h725V101H141V490z"/>
		<rect id="XMLID_140_" x="134" y="437" width="739" height="7"/>
		<path id="XMLID_144_" d="M215.2,465v8.9h5.9l7.4,7.4v-23.6l-7.4,7.4H215.2z M235.1,469.4c0-2.6-1.5-4.9-3.7-5.9v11.9
			C233.6,474.2,235.1,472,235.1,469.4z M231.4,456.4v3c4.3,1.3,7.4,5.2,7.4,9.9s-3.1,8.6-7.4,9.9v3c5.9-1.3,10.3-6.6,10.3-12.9
			S237.4,457.8,231.4,456.4z"/>
		<polygon id="XMLID_145_" points="163.5,457.2 163.5,481.6 182.7,469.4 		"/>
		<path id="XMLID_148_" d="M728.3,470.6c0.1-0.4,0.1-0.8,0.1-1.2s0-0.8-0.1-1.2l2.7-2.1c0.2-0.2,0.3-0.5,0.2-0.8l-2.5-4.4
			c-0.2-0.3-0.5-0.4-0.8-0.3l-3.2,1.3c-0.7-0.5-1.4-0.9-2.1-1.2l-0.5-3.4c0-0.3-0.3-0.5-0.6-0.5h-5.1c-0.3,0-0.6,0.2-0.6,0.5
			l-0.5,3.4c-0.8,0.3-1.5,0.7-2.1,1.2l-3.2-1.3c-0.3-0.1-0.6,0-0.8,0.3l-2.5,4.4c-0.2,0.3-0.1,0.6,0.2,0.8l2.7,2.1
			c-0.1,0.4-0.1,0.8-0.1,1.2s0,0.8,0.1,1.2l-2.7,2.1c-0.2,0.2-0.3,0.5-0.2,0.8l2.5,4.4c0.2,0.3,0.5,0.4,0.8,0.3l3.2-1.3
			c0.7,0.5,1.4,0.9,2.1,1.2l0.5,3.4c0,0.3,0.3,0.5,0.6,0.5h5.1c0.3,0,0.6-0.2,0.6-0.5l0.5-3.4c0.8-0.3,1.5-0.7,2.1-1.2l3.2,1.3
			c0.3,0.1,0.6,0,0.8-0.3l2.5-4.4c0.2-0.3,0.1-0.6-0.2-0.8L728.3,470.6z M718.9,473.8c-2.4,0-4.4-2-4.4-4.4s2-4.4,4.4-4.4
			c2.4,0,4.4,2,4.4,4.4S721.4,473.8,718.9,473.8z"/>
		<path id="XMLID_153_" d="M816,471.9h-3.4v8.6h8.6V477H816V471.9z M812.5,465h3.4v-5.1h5.1v-3.4h-8.6V465z M833.1,477H828v3.4h8.6
			v-8.6h-3.4V477z M828,456.4v3.4h5.1v5.1h3.4v-8.6H828z"/>
		<path id="XMLID_157_" d="M793.8,481.5h-43.3v-24.1h43.3V481.5z M754.3,477.7H790v-16.6h-35.7V477.7z"/>
		<rect id="XMLID_158_" x="141" y="432" class="st2" width="237" height="5"/>
		<polygon id="XMLID_159_" points="218.9,199.4 234.2,150 254.2,150 269.3,199.4 286.4,150 307.2,150 277.2,235.9 262.9,235.9 
			244.1,176.1 225.5,235.9 211.2,235.9 181.2,150 202,150 		"/>
		<path id="XMLID_168_" d="M374,235.9l-8-18.6h-36l-8,18.6h-20.4l37.1-85.9h18.6l37.1,85.9H374z M348.1,175.5l-10.8,24.9h21.5
			L348.1,175.5z"/>
		<polygon id="XMLID_169_" points="434.5,166.6 434.5,235.9 415.3,235.9 415.3,166.6 391,166.6 391,150 458.8,150 458.8,166.6 		"/>
		<path id="XMLID_170_" d="M512.3,218.9c9.4,0,17.1-3.7,23.1-11.2l12.3,12.7c-9.8,11-21.2,16.5-34.5,16.5
			c-13.2,0-24.1-4.2-32.7-12.5c-8.6-8.4-12.8-18.9-12.8-31.6c0-12.7,4.4-23.4,13.1-31.9c8.7-8.5,19.4-12.8,32-12.8
			c14.1,0,25.9,5.4,35.4,16.1l-11.9,13.5c-6.1-7.5-13.6-11.3-22.6-11.3c-7.2,0-13.4,2.4-18.5,7.1c-5.1,4.7-7.7,11.1-7.7,19
			c0,8,2.4,14.4,7.3,19.2C499.5,216.5,505.4,218.9,512.3,218.9z"/>
		<polygon id="XMLID_171_" points="616.1,150 635.3,150 635.3,235.9 616.1,235.9 616.1,202.1 582,202.1 582,235.9 562.8,235.9 
			562.8,150 582,150 582,185.8 616.1,185.8 		"/>
		<polygon id="XMLID_172_" points="269.1,314.3 245.8,361.2 234.4,361.2 211.3,314.3 211.3,368.4 192.1,368.4 192.1,282.5 
			218.1,282.5 240.2,329.7 262.4,282.5 288.2,282.5 288.2,368.4 269.1,368.4 		"/>
		<polygon id="XMLID_173_" points="371.3,282.5 371.3,299.6 328.6,299.6 328.6,317.2 367,317.2 367,333.6 328.6,333.6 328.6,351.4 
			372.7,351.4 372.7,368.4 309.4,368.4 309.4,282.5 		"/>
		<rect id="XMLID_174_" x="410.3" y="270.7" width="389.2" height="107"/>
		<polygon id="XMLID_175_" class="st4" points="481.5,282.5 500.7,282.5 500.7,368.3 481.5,368.3 481.5,334.6 447.4,334.6 
			447.4,368.3 428.2,368.3 428.2,282.5 447.4,282.5 447.4,318.3 481.5,318.3 		"/>
		<path id="XMLID_178_" class="st4" d="M583.1,368.3l-8-18.6h-36l-8,18.6h-20.4l37.1-85.9h18.6l37.1,85.9H583.1z M557.1,308
			L546.3,333h21.5L557.1,308z"/>
		<path id="XMLID_179_" class="st4" d="M652.9,351.4c9.4,0,17.1-3.7,23.1-11.2l12.3,12.7c-9.8,11-21.2,16.5-34.5,16.5
			c-13.2,0-24.1-4.2-32.7-12.5c-8.6-8.4-12.8-18.9-12.8-31.6c0-12.7,4.4-23.4,13.1-31.9c8.7-8.5,19.4-12.8,32-12.8
			c14.1,0,25.9,5.4,35.4,16.1l-11.9,13.5c-6.1-7.5-13.6-11.3-22.6-11.3c-7.2,0-13.4,2.4-18.5,7.1s-7.7,11.1-7.7,19
			c0,8,2.4,14.4,7.3,19.2S646,351.4,652.9,351.4z"/>
		<path id="XMLID_180_" class="st4" d="M703.4,282.5h19.2v35.3l32.4-35.3h23.7l-34.2,38c2.9,4.1,8.4,11.7,16.3,22.9
			c8,11.2,13.9,19.5,17.8,25h-22.4l-25.2-33.9l-8.6,9.6v24.3h-19.2V282.5z"/>
		<path id="XMLID_183_" class="st2" d="M387.1,441.7c-4.8,0-8.8-3.9-8.8-8.8c0-4.8,3.9-8.8,8.8-8.8c4.8,0,8.8,3.9,8.8,8.8
			C395.9,437.8,391.9,441.7,387.1,441.7z M387.1,428.9c-2.2,0-4,1.8-4,4c0,2.2,1.8,4,4,4c2.2,0,4-1.8,4-4
			C391.1,430.7,389.3,428.9,387.1,428.9z"/>
		<path id="XMLID_186_" class="st2" d="M387.1,441.7v-1c-2.1,0-4.1-0.9-5.5-2.3c-1.4-1.4-2.3-3.3-2.3-5.5c0-2.1,0.9-4.1,2.3-5.5
			c1.4-1.4,3.3-2.3,5.5-2.3c2.1,0,4.1,0.9,5.5,2.3c1.4,1.4,2.3,3.3,2.3,5.5c0,2.1-0.9,4.1-2.3,5.5c-1.4,1.4-3.3,2.3-5.5,2.3V441.7v1
			c5.4,0,9.8-4.4,9.8-9.8c0-5.4-4.4-9.8-9.8-9.8c-5.4,0-9.8,4.4-9.8,9.8c0,5.4,4.4,9.8,9.8,9.8V441.7z M387.1,428.9v-1
			c-2.8,0-5,2.3-5,5c0,2.8,2.3,5,5,5c2.8,0,5-2.3,5-5c0-2.8-2.3-5-5-5V428.9v1c0.8,0,1.6,0.3,2.1,0.9c0.6,0.6,0.9,1.3,0.9,2.1
			c0,0.8-0.3,1.6-0.9,2.1c-0.6,0.6-1.3,0.9-2.1,0.9c-0.8,0-1.6-0.3-2.1-0.9c-0.6-0.6-0.9-1.3-0.9-2.1c0-0.8,0.3-1.6,0.9-2.1
			c0.6-0.6,1.3-0.9,2.1-0.9V428.9z"/>
	</g>
</g>
</svg>
